<?xml version="1.0" encoding="UTF-8" standalone="no"?>
<svg
   id="Layer_1"
   version="1.1"
   viewBox="0 0 1672 941"
   sodipodi:docname="Infinity services Vectored black no number wide.svg"
   inkscape:export-filename="Infinity services Vectored.png"
   inkscape:export-xdpi="117.58852"
   inkscape:export-ydpi="117.58852"
   inkscape:version="1.4.4 (dcaf3e7, 2026-05-05)"
   xmlns:inkscape="http://www.inkscape.org/namespaces/inkscape"
   xmlns:sodipodi="http://sodipodi.sourceforge.net/DTD/sodipodi-0.dtd"
   xmlns="http://www.w3.org/2000/svg"
   xmlns:svg="http://www.w3.org/2000/svg">
  <sodipodi:namedview
     id="namedview39"
     pagecolor="#ffffff"
     bordercolor="#000000"
     borderopacity="0.25"
     inkscape:showpageshadow="2"
     inkscape:pageopacity="0.0"
     inkscape:pagecheckerboard="0"
     inkscape:deskcolor="#d1d1d1"
     inkscape:zoom="0.49342105"
     inkscape:cx="836"
     inkscape:cy="482.34667"
     inkscape:window-width="1340"
     inkscape:window-height="1047"
     inkscape:window-x="2013"
     inkscape:window-y="30"
     inkscape:window-maximized="0"
     inkscape:current-layer="Layer_1" />
  <!-- Generator: Adobe Illustrator 30.0.0, SVG Export Plug-In . SVG Version: 2.1.1 Build 123)  -->
  <defs
     id="defs1">
    <style
       id="style1">
      .st0 {
        fill: #f0f;
      }
    </style>
  </defs>
  <path
     class="st0"
     d="M363,400.2h94.4c.6,0,1.1.3,1.4.7,32.2,47.3,89.3,76.8,147.4,64.9,24.8-5.1,46.5-17.1,66.6-32.4,12.3-9.4,24.7-20,37.1-31.9,20.3-19.5,40.3-40.2,60-62.2,1.2-1.3,1.2-2.6.1-3.8-22.7-24.3-44.1-45.7-64.1-64.2-16-14.8-32.1-27.6-48.4-38.6-22.2-14.8-45.9-25.3-72.6-29-46.4-6.3-92.2,14.6-121.4,50.4-3.5,4.3-6.8,8.6-9.7,12.9-.3.4-.7.6-1.2.6h-91.3c-.3,0-.5-.2-.5-.5,0,0,0-.1,0-.2,13.6-43.1,39.7-80.4,76-107.6,28.8-21.5,61.4-35.4,98.1-41.5,18.9-3.2,38.7-3.6,59.5-1.4,41.1,4.4,82.9,22.7,115.8,46.7,18.4,13.4,37.1,29.4,56,47.9,19.3,18.9,31.2,30.5,35.6,35,2,2,23.4,23.6,64.5,65,29.8,30.1,59.5,62.4,90.5,91.4,17.3,16.2,36.1,30.3,56.2,42.3,11.9,7.1,24.3,12.5,37.3,16.4,28.2,8.4,55.9,7.6,83.2-2.2,29.5-10.6,55.7-31.4,72.9-58.1.3-.5.9-.8,1.5-.8h90.1c.3,0,.5.2.5.5,0,0,0,0,0,.1-13.9,40.9-37.3,74.9-70.2,102.1-22.3,18.5-48,32.2-77.2,41.1-36.1,11-75.8,11.1-112,2.4-34.8-8.4-67.5-24.7-96.4-45.9-24.2-17.8-44.4-36.5-68.6-59.3-9.8-9.2-21.5-20.6-35.2-34.2-2.7-2.7-5.5-5.4-8.5-8.2-.5-.5-1.4-.5-1.9,0,0,0,0,0,0,0-20.2,21.6-39.7,41.9-58.4,60.9-18.6,18.8-37.7,36.2-58.5,51.5-28.8,21.3-63.2,36.6-98.7,41.3-34.1,4.6-67.1,1.6-98.9-8.8-28.8-9.4-55.2-23.7-79.1-42.8-33.1-26.5-57.3-59.8-72.4-100-.1-.3,0-.6.3-.7,0,0,.1,0,.2,0Z"
     id="path1"
     style="fill:#000000" />
  <path
     class="st0"
     d="M1299.7,267.8c0,.2-.1.5-.3.5,0,0,0,0,0,0h-87.6c-.4,0-.8-.2-1-.5-13.9-22.4-32.4-39.6-55.4-51.6-28.2-14.7-60-18.1-90.7-10.3-9.6,2.4-19.6,6.3-30.2,11.5-24.3,12.1-46,28.5-66.7,46.3-12.8,10.9-25.1,22-36.9,33.1-.3.3-.8.3-1.1,0,0,0,0,0,0,0l-56.2-60.4c-.5-.6-.5-1.5,0-2,7.4-6.9,14.2-13.3,20.5-19.1,40.3-37.4,84.1-72.7,137.6-89.1,17.8-5.4,36-8.6,54.8-9.6,32.1-1.7,62.7,3.5,91.9,15.6,55.6,23,98.8,68.2,118.3,125.2,1.5,4.5,2.6,8,3,10.3Z"
     id="path2"
     style="fill:#000000" />
  <path
     class="st0"
     d="M1003.7,348.7c.4,0,.7.3.7.6.7,5-1.9,13.2,6.9,12.9,3.9-.2,6-2.7,6.2-7.6.2-4.8-1.5-8.8-4.9-12.1-12.3-11.6-21.6-17.4-20.1-34.5.9-9.9,6.1-15.5,15.7-16.8,6.2-.8,13.2.5,17.5,5.4,4.2,4.9,4.8,12,4.6,18.3,0,.4-.3.6-.7.6h-11.1c-.3,0-.6-.3-.6-.6,0,0,0,0,0,0,.4-4.4.7-11-5.1-11.7-9.1-1.1-8.4,9.8-5.5,14.7,1.4,2.4,3.2,4.6,5.4,6.4,4.6,4,8.3,7.6,11.1,10.7,4,4.4,6.1,9.3,6.4,14.8.7,12.5-2.4,23-17.2,24.1-9.4.7-18.2-3.1-20.1-13.2-.7-3.8-.9-7.7-.7-11.7,0-.2.2-.4.4-.4h11.2Z"
     id="path3"
     style="fill:#000000" />
  <path
     class="st0"
     d="M1354.2,342.5h11.6c.3,0,.5.2.5.5,0,7.1.7,18.2-3,23.4-2.4,3.5-5.7,5.8-9.7,6.8-9,2.3-20.4.5-24.1-9-1.1-2.8-1.7-6.1-1.7-9.7,0-20.4,0-35.4,0-45,0-7.6,3.9-15.2,11.6-17.4,11-3.2,23.5.4,26,12.9.9,4.7,1.1,9.5.6,14.3,0,.3-.3.6-.7.6h-11.2c-.3,0-.6-.3-.6-.6,0-2,0-4.4,0-7.1.1-5.7-1.5-9.7-7.7-8.8-3.1.4-4.7,2.3-4.8,5.6-.2,3.8-.2,18.3-.2,43.6,0,3.8.3,6.2.9,7.2,2.1,3.6,8.7,3.4,10.9-.4.6-1.1.9-2.8.9-5.2,0-6.8,0-10.4,0-10.9,0-.4.4-.8.8-.8Z"
     id="path4"
     style="fill:#000000" />
  <path
     class="st0"
     d="M1480,349.4c.7,5-1.9,13.2,6.9,12.9,3.9-.1,6-2.7,6.2-7.6.2-4.8-1.5-8.9-4.9-12.1-12.3-11.6-21.6-17.5-20.1-34.6.9-9.9,6.1-15.5,15.7-16.8,6.2-.8,13.2.5,17.5,5.4,4.2,4.9,4.8,12.1,4.5,18.4,0,.4-.3.6-.7.6h-11.1c-.3,0-.6-.3-.6-.6,0,0,0,0,0,0,.4-4.4.7-11-5.1-11.7-9.1-1.1-8.4,9.8-5.5,14.8,1.4,2.4,3.2,4.6,5.4,6.4,4.6,4,8.3,7.6,11.1,10.7,4,4.4,6.1,9.3,6.4,14.8.7,12.5-2.4,23-17.2,24.1-9.4.7-18.3-3.1-20.1-13.2-.7-3.8-.9-7.7-.7-11.7,0-.2.2-.4.4-.4h11.2c.4,0,.7.3.7.6Z"
     id="path5"
     style="fill:#000000" />
  <path
     class="st0"
     d="M218.4,372.5c0,.3-.3.6-.6.6h-11.9c-.3,0-.6-.3-.6-.6h0v-79.8c0-.3.3-.6.6-.6h11.9c.3,0,.6.3.6.6v79.8Z"
     id="path6"
     style="fill:#000000" />
  <path
     class="st0"
     d="M284.1,338.7c.1,0,.3,0,.3-.1,0,0,0,0,0-.1v-45.7c0-.3.2-.6.5-.6h10.8c.2,0,.4.2.4.4h0s0,80.1,0,80.1c0,.3-.3.6-.6.6h-12.5c-.4,0-.7-.2-.8-.6-6.5-24.4-11.3-42.7-14.6-55-.1-.5-.3-.7-.6-.7-.1,0-.3.1-.3.3v55.5c0,.3-.2.5-.4.5,0,0,0,0,0,0h-10.6c-.3,0-.5-.2-.5-.5v-80c0-.3.2-.6.5-.6h15.1c.4,0,.8.3.9.7,5.4,20.4,9.4,35.6,12,45.5,0,.2.2.3.3.4Z"
     id="path7"
     style="fill:#000000" />
  <path
     class="st0"
     d="M332.5,372.6v-80c0-.3.2-.5.5-.5h33.7c.3,0,.5.2.5.5h0v11c0,.3-.2.5-.5.5h-20.6c-.3,0-.5.2-.5.5h0v21.2c0,.3.2.5.5.5h16.2c.3,0,.5.2.5.5h0v11c0,.3-.2.5-.5.5h-16.2c-.3,0-.5.2-.5.5v33.8c0,.3-.2.5-.5.5h-12c-.3,0-.5-.2-.5-.5h0Z"
     id="path8"
     style="fill:#000000" />
  <path
     class="st0"
     d="M477.3,338.6c.1,0,.3,0,.3-.1,0,0,0,0,0-.1v-45.6c0-.3.3-.6.6-.6h10.8c.2,0,.4.2.4.4h0v79.9c0,.3-.3.6-.6.6h-12.4c-.4,0-.7-.2-.8-.6-6.4-24.3-11.3-42.6-14.5-54.9-.1-.5-.3-.7-.6-.7-.1,0-.3.1-.3.3v55.4c0,.3-.2.5-.5.5h-10.6c-.3,0-.5-.2-.5-.5v-79.8c0-.3.3-.6.6-.6h15.1c.4,0,.8.3.9.7,5.4,20.4,9.4,35.5,11.9,45.4,0,.2.2.3.3.4Z"
     id="path9"
     style="fill:#000000" />
  <path
     class="st0"
     d="M538.6,372.5c0,.3-.3.6-.6.6h-11.9c-.3,0-.6-.3-.6-.6v-79.8c0-.3.3-.6.6-.6h11.9c.3,0,.6.3.6.6h0v79.8Z"
     id="path10"
     style="fill:#000000" />
  <path
     class="st0"
     d="M591.3,292.1c9.2,0,15.8,0,19.8.1.2,0,.4.2.4.4v10.9c0,.3-.3.6-.6.6h-12.6c-.3,0-.6.3-.6.6v67.9c0,.3-.2.5-.5.5-1,0-3,0-6.1,0-3,0-5.1,0-6.1,0-.3,0-.5-.2-.5-.5l.2-67.9c0-.3-.3-.6-.6-.6h-12.6c-.3,0-.6-.3-.6-.7v-10.9c0-.2.2-.4.4-.4,4,0,10.6,0,19.8,0Z"
     id="path11"
     style="fill:#000000" />
  <path
     class="st0"
     d="M640.2,292.1h12.8c.2,0,.5.2.5.4l8.5,29.1c0,.2.2.3.4.2,0,0,.2-.1.2-.2l8.4-28.8c.1-.4.5-.7.9-.6h11.8c.2,0,.3.2.3.3,0,0,0,0,0,.1-.9,2.8-5.5,16.8-13.8,42-1.2,3.8-1.8,7.6-1.9,11.4,0,9.8,0,18.6,0,26.5,0,.4-.3.7-.6.7,0,0,0,0,0,0h-11.8c-.3,0-.6-.3-.6-.6h0c.1-9.5,0-20.1,0-31.7,0-.8-.3-2-.9-3.7-5.1-14.9-10.1-29.7-14.8-44.4,0-.3,0-.6.3-.7,0,0,.1,0,.2,0Z"
     id="path12"
     style="fill:#000000" />
  <path
     class="st0"
     d="M1078.2,361.3h21.3c.3,0,.6.3.6.6h0v10.7c0,.3-.3.6-.6.6h-34.5c-.3,0-.6-.3-.6-.6v-79.9c0-.3.3-.6.6-.6h34.4c.3,0,.6.3.6.6v10.8c0,.3-.3.6-.6.6h-21.2c-.3,0-.6.3-.6.6v20c0,.3.3.6.6.6h16.7c.3,0,.6.3.6.6h0v10.7c0,.3-.3.6-.6.6h-16.6c-.3,0-.6.3-.6.6v22.9c0,.3.3.6.6.6Z"
     id="path13"
     style="fill:#000000" />
  <path
     class="st0"
     d="M1177.2,371.5c0,.2,0,.4-.2.4,0,0,0,0-.1,0h-12.2c-.7,0-1.3-.5-1.4-1.2-.3-1.8-.5-3.5-.5-5,0-11.8-.1-19-.2-21.4-.4-7.1-6.3-7.3-11.7-6.9-.3,0-.6.3-.6.7v33.3c0,.3-.2.5-.5.5h-11.8c-.4,0-.8-.3-.8-.8v-79.8c0-.2.2-.4.4-.4,8.9-.2,16-.2,21.4,0,10.5.5,16.2,5.9,16.8,16.4.1,2.1,0,5.5-.1,10.3-.3,5.7-2.8,10-7.7,12.7-.2.1-.3.3-.2.5,0,0,.1.2.2.2,5.6,1.7,7.3,7.3,7.8,12.8,0,1.1.1,7.9.1,20.3,0,2.5.4,4.8,1.3,7.1ZM1150.2,303.4v21.7c0,.3.2.5.5.5h5.7c3.4,0,6.2-3,6.2-6.7v-9.3c0-3.7-2.7-6.7-6.2-6.7h-5.7c-.3,0-.5.2-.5.5Z"
     id="path14"
     style="fill:#000000" />
  <path
     class="st0"
     d="M1234.8,292.2h11.6c.2,0,.4.2.4.3,0,0,0,0,0,0l-12.6,80.3c0,.2-.2.3-.3.3h-17.4c-.2,0-.3-.1-.3-.3l-12.5-80.3c0-.2.1-.4.3-.4,0,0,0,0,0,0h12.6c.2,0,.3.1.3.3l8.3,60.9c0,.2.2.3.4.3.1,0,.3-.1.3-.3l8.5-60.8c0-.2.2-.3.3-.3Z"
     id="path15"
     style="fill:#000000" />
  <path
     class="st0"
     d="M1292.4,372.5c0,.3-.3.6-.6.6h-11.9c-.3,0-.6-.3-.6-.6v-79.8c0-.3.3-.6.6-.6h11.9c.3,0,.6.3.6.6v79.8Z"
     id="path16"
     style="fill:#000000" />
  <path
     class="st0"
     d="M1414,337.2c-.4,0-.7.3-.8.7v22.6c0,.4.3.7.7.7h21.1c.3.2.6.4.6.8v10.7c0,.3-.2.5-.5.5h-34.4c-.4,0-.7-.3-.7-.8v-79.7c0-.3.3-.5.6-.5h34.6c.3,0,.5.3.5.5,0,0,0,0,0,0v11c0,.3-.3.5-.6.5h-21.5c-.2,0-.4.2-.4.4v20.1c0,.4.3.7.6.7h16.7c.3,0,.5.3.5.6v10.7c.1.3-.2.6-.5.6,0,0,0,0,0,0h-16.5Z"
     id="path17"
     style="fill:#000000" />
  <path
     class="st0"
     d="M413,372.5c0,.4-.3.6-.6.6h-11.8c-.4,0-.6-.3-.6-.6v-79.7c0-.4.3-.6.6-.6h11.8c.4,0,.6.3.6.6v79.7Z"
     id="path18"
     style="fill:#000000" />
  <path
     class="st0"
     d="M711.7,615.4c-.2,2.9-.2,6.7,3.5,6.8,2.6,0,4-1.2,4.2-3.7.7-8-7.1-10.5-11.3-16.1-2.4-3.1-3.5-6.9-3.3-11.2.3-7.3,5-10.8,12-10.6,8,.3,10,6,10.1,13,0,.7-.5,1.2-1.2,1.2,0,0,0,0,0,0h-5.1c-.5,0-.9-.4-.9-.9,0,0,0-.2,0-.2,1-3.7-1.7-7.8-5.8-5.4-2.4,1.4-1.8,5.9-.8,7.9.6,1.1,1.6,2.3,3.2,3.6,4.4,3.8,9.8,8.1,10.5,14.1,1.3,10.7-3.9,16.7-14.7,14.7-6.9-1.3-7.6-7-7.7-13.1,0-.6.5-1.2,1.1-1.2,0,0,0,0,0,0h5.1c.6,0,1,.4,1,1,0,0,0,0,0,0Z"
     id="path19"
     style="fill:#000000" />
  <path
     class="st0"
     d="M860.8,628.1c0-7.3-.2-12.8,4.9-18.6,2.8-3.1,5.2-6.1,7.4-8.9,1.9-2.4,2.7-5.3,2.5-8.6-.1-2.3-.9-3.7-2.4-4.2-5.7-1.9-5.1,5.2-4.9,8.1,0,.8-.5,1.4-1.3,1.5,0,0,0,0,0,0h-4.8c-.8,0-1.4-.6-1.4-1.4,0,0,0,0,0,0,0-6.4,0-13.1,7.8-15,6.2-1.5,12.8.6,14.3,7.3,1.6,7.1-1,12.2-5.1,17.7-3.7,4.9-9.1,7.9-9.2,14.7,0,.4.3.7.7.7,0,0,0,0,0,0h13.2c.4,0,.7.3.7.7v5.7c0,.3-.3.6-.6.6h-21.1c-.3,0-.5-.2-.5-.5h0Z"
     id="path20"
     style="fill:#000000" />
  <path
     class="st0"
     d="M931.6,618.7c0,5.7-4.6,10.4-10.4,10.4h-2.3c-5.7,0-10.4-4.6-10.4-10.4h0s0-27.5,0-27.5c0-5.7,4.6-10.4,10.4-10.4h2.3c5.7,0,10.4,4.6,10.4,10.4h0s0,27.5,0,27.5ZM923.9,591.3c0-2-1.6-3.6-3.6-3.6h-.3c-2,0-3.6,1.6-3.6,3.6v27.3c.1,2,1.7,3.6,3.7,3.6h.3c2,0,3.6-1.6,3.6-3.6v-27.3Z"
     id="path21"
     style="fill:#000000" />
  <path
     class="st0"
     d="M979.5,618.7c0,5.8-4.7,10.4-10.4,10.4h-2.1c-5.8,0-10.4-4.7-10.4-10.4v-27.5c0-5.8,4.7-10.4,10.4-10.4h2.1c5.8,0,10.4,4.7,10.4,10.4v27.5ZM971.7,591.2c0-1.9-1.6-3.5-3.5-3.5h-.4c-1.9,0-3.5,1.6-3.5,3.5v27.4c0,1.9,1.6,3.5,3.5,3.5h.4c1.9,0,3.5-1.6,3.5-3.5v-27.4Z"
     id="path22"
     style="fill:#000000" />
  <path
     class="st0"
     d="M680.8,582v5.8c0,.3-.3.6-.6.6h-12c-.3,0-.6.3-.6.6h0v11c0,.3.3.6.6.6h9.2c.3,0,.6.3.6.6h0v5.8c0,.3-.3.6-.6.6h-9.2c-.3,0-.6.3-.6.6h0v12.9c0,.3.3.6.6.6h11.9c.3,0,.6.3.6.6h0v5.7c0,.3-.3.6-.6.6h-19.5c-.3,0-.6-.3-.6-.6v-45.9c0-.3.3-.6.6-.6h19.5c.3,0,.6.3.6.6h0Z"
     id="path23"
     style="fill:#000000" />
  <path
     class="st0"
     d="M1012.2,606.8c0,.5-.4.9-.9.9h-5.5c-.4,0-.8-.3-.8-.8,0,0,0,0,0,0l1.2-25.1c0-.2.2-.4.4-.4h18.8c.4,0,.7.3.7.7h0v5.6c0,.3-.3.6-.6.6h-12c-.4,0-.6.3-.7.6l-.4,9c0,.2.2.4.4.5.1,0,.2,0,.3-.1,3.9-3.4,10.2-2.4,12.7,1.5,1.1,1.7,1.6,4.9,1.7,9.8,0,8.1,1,16.8-7.6,19-5.2,1.3-12,.3-14.1-5.4-.6-1.5-1-4.3-1.1-8.2,0-.7.5-1.3,1.3-1.4,0,0,0,0,0,0h5.1c.6,0,1.1.5,1.1,1.1,0,0,0,.1,0,.2-.5,2.4-.4,6.8,3.1,7.2,2.9.3,4.3-1,4.5-3.8.1-3.7.1-7.8,0-12.2-.2-4.4-7.3-4.4-7.4.8Z"
     id="path24"
     style="fill:#000000" />
  <path
     class="st0"
     d="M761.7,581.4c3.7,0,7.4,0,11,0,.4,0,.7.3.7.7v5.5c0,.4-.3.7-.7.7h-6.5c-.3,0-.6.3-.6.6v38.8c0,.3-.3.6-.6.6,0,0-1.2,0-3.3,0-2.2,0-3.3,0-3.3,0-.3,0-.6-.3-.6-.6v-38.8c0-.3-.2-.6-.5-.6h-6.5c-.4,0-.7-.3-.7-.7s0,0,0,0v-5.5c0-.4.3-.7.7-.7h0c3.6,0,7.3,0,11,0Z"
     id="path25"
     style="fill:#000000" />
  <path
     class="st0"
     d="m 804.1,627.8 c 0,0.5 -0.4,0.9 -0.8,0.9 h -5.8 c -0.5,0 -0.9,-0.3 -0.9,-0.8 v 0 c 0,0 0,-5.8 0,-5.8 0,-0.5 0.4,-0.9 0.8,-0.9 h 5.8 c 0.5,0 0.9,0.3 0.9,0.8 z"
     id="path26"
     style="fill:#000000" />
</svg>
